<svg width="100%" height="100%" viewBox="0 0 128 128" fill="none"
  xmlns="http://www.w3.org/2000/svg">
  <path d="M50.2976 94.0224L45.1136 99.1744C42.9419 101.312 40.0168 102.51 36.9696 102.51C33.9224 102.51 30.9973 101.312 28.8256 99.1744C27.7668 98.1259 26.9262 96.8778 26.3526 95.5025C25.779 94.1272 25.4836 92.6518 25.4836 91.1616C25.4836 89.6714 25.779 88.196 26.3526 86.8207C26.9262 85.4454 27.7668 84.1973 28.8256 83.1488L47.8976 64.2368C51.8464 60.3136 59.2832 54.5408 64.704 59.9168C65.2874 60.5388 65.9901 61.037 66.7702 61.3815C67.5503 61.726 68.3918 61.9098 69.2445 61.922C70.0971 61.9341 70.9435 61.7743 71.7331 61.4522C72.5227 61.1301 73.2394 60.6522 73.8402 60.047C74.4411 59.4419 74.9138 58.7219 75.2303 57.93C75.5468 57.1381 75.7005 56.2906 75.6823 55.438C75.6641 54.5854 75.4742 53.7453 75.1242 52.9676C74.7741 52.19 74.271 51.4909 73.6448 50.912C64.4416 41.7728 50.8224 43.4624 38.9632 55.232L19.8912 74.1504C17.6377 76.3721 15.8499 79.0209 14.6323 81.9418C13.4147 84.8627 12.7918 87.9971 12.8 91.1616C12.7921 94.3261 13.4152 97.4603 14.6328 100.381C15.8504 103.302 17.638 105.951 19.8912 108.173C24.4333 112.678 30.5753 115.2 36.9728 115.187C43.1616 115.187 49.3504 112.851 54.0544 108.173L59.2448 103.021C59.8367 102.435 60.3072 101.739 60.6293 100.971C60.9514 100.204 61.1187 99.3799 61.1217 98.5474C61.1247 97.715 60.9632 96.8901 60.6466 96.1202C60.33 95.3502 59.8645 94.6504 59.2768 94.0608C58.0887 92.8695 56.4775 92.1968 54.7951 92.1896C53.1127 92.1824 51.4958 92.8413 50.2976 94.0224V94.0224ZM108.102 20.5248C98.2016 10.7072 84.3648 10.176 75.2128 19.264L68.7552 25.6768C67.5619 26.8616 66.8882 28.4718 66.8822 30.1534C66.8762 31.8349 67.5384 33.4499 68.7232 34.6432C69.908 35.8365 71.5183 36.5102 73.1998 36.5162C74.8813 36.5222 76.4963 35.86 77.6896 34.6752L84.1536 28.2688C88.8896 23.5584 95.104 25.5104 99.168 29.5296C101.318 31.6736 102.509 34.5152 102.509 37.5424C102.509 40.5696 101.318 43.4112 99.168 45.5488L78.816 65.7344C69.5104 74.9568 65.1456 70.6368 63.2832 68.7872C62.6924 68.2006 61.9918 67.736 61.2214 67.4202C60.451 67.1043 59.626 66.9432 58.7934 66.9462C57.9608 66.9492 57.1369 67.1161 56.3688 67.4375C55.6007 67.7588 54.9034 68.2284 54.3168 68.8192C53.7302 69.41 53.2656 70.1106 52.9498 70.881C52.6339 71.6514 52.4728 72.4764 52.4758 73.309C52.4788 74.1416 52.6457 74.9655 52.9671 75.7336C53.2885 76.5017 53.758 77.199 54.3488 77.7856C58.624 82.0224 63.5008 84.1216 68.608 84.1216C74.8608 84.1216 81.472 80.9728 87.7632 74.7328L108.115 54.5536C110.364 52.3286 112.148 49.679 113.364 46.7588C114.58 43.8385 115.204 40.7058 115.2 37.5424C115.206 34.3767 114.581 31.2416 113.363 28.3199C112.144 25.3981 110.356 22.7482 108.102 20.5248V20.5248Z" fill="currentcolor"/>
</svg>
