<svg viewBox="0 0 458 111" fill="none" xmlns="http://www.w3.org/2000/svg">
<g clip-path="url(#clip0)">
<path d="M19.6 14.14C18.82 14.14 17.81 14.36 16.81 14.7C13.81 15.81 10.36 18.26 8.35 19.26C7.57 19.6 6.68 19.82 5.9 19.82C3.12 19.82 0.45 17.93 0 16.48C2.23 14.36 5.01 12.14 8.13 10.13C12.25 7.57001 16.48 5.45001 19.6 5.45001C19.93 5.45001 20.27 5.56001 20.49 5.56001C23.61 6.00001 26.39 7.23001 28.62 8.90001C32.63 11.9 34.97 16.13 35.3 18.59C35.41 20.14 35.52 21.93 35.52 24.04C35.52 28.5 35.18 33.95 34.85 40.07C38.97 36.51 43.76 31.83 48.43 26.94C55.78 19.26 62.68 11.35 65.35 7.23001C67.35 7.57001 70.14 11.01 70.14 15.03C70.14 17.03 68.8 19.37 66.91 21.82C64.57 24.82 48.98 40.08 40.19 45.42C42.86 47.98 45.64 50.99 48.43 54.22C51.43 57.78 55.89 63.01 60.45 68.02C67.02 75.26 73.7 82.05 77.15 83.61C77.15 83.61 73.59 88.29 67.24 88.29C66.46 88.29 65.57 88.29 64.68 88.07C61.57 87.51 58.11 84.06 54.21 79.27C51.32 75.71 48.42 71.26 45.2 66.91C42.86 63.68 40.41 60.23 37.96 57L33.95 51.88C33.28 62.23 33.17 65.79 33.17 71.92V87.95C29.61 87.95 21.04 84.05 20.48 77.71C20.37 76.6 20.37 75.15 20.37 73.59C20.37 67.92 20.93 59.68 21.6 51.99C19.48 50.32 18.48 46.87 18.48 43.53C18.48 40.86 19.37 37.07 22.71 36.74C23.16 31.51 23.49 25.94 23.49 22.05C23.49 19.05 23.38 16.82 22.71 15.82C22.05 14.69 20.93 14.14 19.6 14.14Z" fill="currentColor"/>
<path d="M72.17 65.57C72.17 60.23 72.72 54.33 73.17 48.32C73.72 42.08 74.5 35.63 74.5 29.17H75.39C78.51 29.17 82.96 30.73 85.41 35.96C86.42 38.19 86.75 40.75 86.75 43.64C86.75 46.54 86.42 49.76 86.19 53.21C85.75 58.89 85.08 64.57 85.08 70.58C85.08 73.92 85.19 76.93 86.42 78.48C86.97 79.26 87.87 79.59 88.98 79.59C90.09 79.59 91.65 78.59 92.77 77.47C95.66 74.8 97.89 70.12 98.22 68.56C99.56 68.56 101.22 70.45 101.22 72.34C101.22 74.12 100.44 76.68 99.33 78.69C96.21 84.26 91.87 87.49 87.08 87.49C80.18 87.49 75.5 83.26 73.83 78.36C72.28 73.7 72.17 69.8 72.17 65.57ZM85.97 9.91C88.64 11.58 90.65 14.14 90.65 17.26C90.65 20.38 87.42 21.82 84.41 21.82C81.07 21.82 77.29 20.04 74.84 17.36C73.39 15.69 72.61 13.91 72.61 12.35C72.61 11.35 72.95 10.46 73.5 9.68C74.5 8.34 76.4 7.56 78.96 7.56C81.19 7.57 83.75 8.46 85.97 9.91Z" fill="currentColor"/>
<path d="M94.89 29.17C94.89 19.82 95.33 10.8 96.56 6.13001C97.56 1.90001 100.12 0.0100098 103.13 0.0100098C106.69 0.0100098 109.58 1.57001 111.81 3.90001C115.82 8.24001 117.71 15.37 117.71 21.27C117.71 32.4 113.93 43.65 109.58 55.67V58.45C109.58 69.02 110.25 77.71 114.14 80.05C114.7 80.39 115.25 80.49 115.81 80.49C117.59 80.49 119.37 79.04 120.93 77.15C123.04 74.59 124.6 71.14 125.05 68.69C126.28 68.91 128.06 70.92 128.06 74.03C128.06 75.92 127.5 77.14 126.72 78.48C124.6 82.04 120.6 85.72 118.04 86.72C116.26 87.39 114.48 87.72 112.7 87.72C108.47 87.72 104.46 85.94 101.57 82.04C98.23 77.48 97.11 67.45 95.89 54.66C95.23 47.54 94.89 37.96 94.89 29.17ZM111.04 22.93C111.04 18.92 110.26 15.58 108.03 15.58C105.92 15.58 105.58 19.92 105.58 25.6C105.58 33.06 106.02 39.51 106.8 44.86C106.81 44.86 111.04 30.83 111.04 22.93Z" fill="currentColor"/>
<path d="M121.51 29.17C121.51 19.82 121.95 10.8 123.18 6.13001C124.19 1.90001 126.74 0.0100098 129.75 0.0100098C133.31 0.0100098 136.2 1.57001 138.43 3.90001C142.44 8.24001 144.33 15.37 144.33 21.27C144.33 32.4 140.55 43.65 136.2 55.67V58.45C136.2 69.02 136.87 77.71 140.76 80.05C141.32 80.39 141.87 80.49 142.43 80.49C144.21 80.49 145.99 79.04 147.55 77.15C149.66 74.59 151.22 71.14 151.67 68.69C152.9 68.91 154.68 70.92 154.68 74.03C154.68 75.92 154.12 77.14 153.34 78.48C151.22 82.04 147.22 85.72 144.66 86.72C142.88 87.39 141.1 87.72 139.32 87.72C135.09 87.72 131.08 85.94 128.19 82.04C124.85 77.48 123.73 67.45 122.51 54.66C121.85 47.54 121.51 37.96 121.51 29.17ZM137.66 22.93C137.66 18.92 136.88 15.58 134.65 15.58C132.54 15.58 132.2 19.92 132.2 25.6C132.2 33.06 132.64 39.51 133.42 44.86C133.42 44.86 137.66 30.83 137.66 22.93Z" fill="currentColor"/>
<path d="M162.16 58.22C162.16 65.34 163.5 72.25 167.28 76.14C169.84 78.92 172.85 80.15 175.74 80.15C179.52 80.15 183.42 78.26 186.54 75.14C189.66 72.03 192 67.68 192.78 63.01C194.89 63.01 196.45 65.24 196.45 68.13C196.45 68.57 196.45 69.02 196.34 69.47C195.56 73.81 193.33 77.6 190.1 80.6C185.54 84.83 179.3 87.39 172.62 87.39C166.05 87.39 158.81 85.16 153.81 78.82C149.8 73.81 148.02 66.35 148.02 58.67C148.02 50.88 149.91 42.86 153.92 37.07C157.93 31.17 163.72 28.83 169.28 28.83C175.96 28.83 182.41 32.17 184.42 36.63C185.31 38.41 185.65 40.19 185.65 41.97C185.65 45.98 183.53 49.65 179.64 52.77C174.85 56.55 168.17 58.22 162.16 58.22ZM162.39 52.99C165.17 52.44 167.73 51.54 170.52 49.76C173.86 47.42 175.64 43.41 175.64 40.41C175.64 37.29 173.64 34.4 171.3 34.4C166.95 34.4 163.39 44.08 162.39 52.99Z" fill="currentColor"/>
<path d="M202.93 86.39C202.15 86.83 201.26 86.95 200.37 86.95C196.81 86.95 193.02 83.95 191.91 80.94C190.57 77.6 190.13 69.92 190.13 61.79C190.13 57.23 190.24 51.1 190.35 46.76C190.46 43.2 190.57 39.97 190.57 37.41C190.57 35.07 190.35 33.29 190.13 32.07C190.91 31.84 191.69 31.73 192.47 31.73C195.7 31.73 198.59 33.73 200.37 36.63C202.6 39.97 202.82 44.53 202.82 49.21V53.55C203.82 50.21 205.05 47.1 206.16 44.98C206.05 44.2 205.94 43.31 205.94 42.53C205.94 41.42 206.05 39.97 206.38 38.52C207.16 35.29 208.38 32.85 210.06 31.51C210.73 30.95 211.51 30.73 212.4 30.73C215.96 30.73 220.75 34.51 220.75 38.97C220.75 41.98 216.19 47.21 216.19 47.21C216.19 47.21 218.19 53 223.54 54.11C223.88 54.22 224.32 54.22 224.65 54.22C228.21 54.22 231.55 51.1 232.44 47.54C234.33 47.76 235.56 49.43 235.56 52.1C235.56 57.78 230.33 61.23 223.98 61.23C217.75 61.23 212.29 58.23 209.29 53.66C207.84 56 206.39 59.11 205.17 62.34C203.61 66.35 202.5 70.69 202.5 73.58C202.49 78.15 202.6 82.04 202.93 86.39Z" fill="currentColor"/>
<path d="M258.39 74.36C258.39 69.02 259.5 62 259.5 59.89C256.72 68.35 253.38 77.7 249.26 82.82C247.48 85.05 245.14 86.94 241.91 86.94C239.46 86.94 237.02 85.94 234.68 83.94C231.9 81.49 229.45 77.7 227.78 72.36C226.67 68.58 226 64.46 226 60.34C226 52.99 227.89 45.76 231.34 40.08C235.02 34.29 240.58 30.29 247.37 30.29C251.15 30.29 256.61 32.62 259.39 37.75C259.72 36.53 259.95 35.19 260.06 34.08C260.17 33.52 261.17 33.3 262.4 33.3C265.63 33.3 270.53 35.19 272.2 38.09C272.53 38.76 272.64 39.31 272.64 40.09C271.97 44.65 272.42 48.11 271.97 56.01C271.64 62.13 271.08 76.71 271.08 78.05C273.42 76.38 275.64 74.71 277.53 73.15C279.76 71.37 281.54 69.48 282.76 67.81C283.98 68.48 285.54 70.04 285.54 72.37C285.54 73.48 284.98 75.04 283.87 76.6C281.08 80.38 275.97 83.83 270.29 86.84C269.51 93.08 267.73 99.64 264.05 103.99C260.49 108.22 253.92 110.22 248.02 110.22C244.01 110.22 235 109 235 102.87C235 101.65 235.44 100.42 236.11 99.2C238.45 95.52 244.13 92.74 249.25 90.29C252.7 88.62 258.16 85.73 258.16 85.73C258.17 83.6 258.39 80.15 258.39 74.36ZM252.15 65.13C254.71 59.45 256.61 52.66 258.39 46.2C257.72 41.3 254.27 37.41 250.93 37.41C246.03 37.41 242.02 49.21 240.91 58.34C240.58 61.24 240.47 63.8 240.47 66.02C240.47 73.7 242.14 77.38 244.37 77.38C246.48 77.37 249.15 71.58 252.15 65.13ZM257.61 93.07C255.94 93.74 249.15 96.97 247.37 98.3C246.7 98.75 245.37 99.75 245.37 100.64C245.37 101.86 247.15 102.64 249.27 102.64C251.38 102.64 253.94 101.75 255.28 99.52C256.39 97.52 257.05 95.41 257.61 93.07Z" fill="currentColor"/>
<path d="M292.93 86.39C292.15 86.83 291.26 86.95 290.37 86.95C286.81 86.95 283.02 83.95 281.91 80.94C280.57 77.6 280.13 69.92 280.13 61.79C280.13 57.23 280.24 51.1 280.35 46.76C280.46 43.2 280.57 39.97 280.57 37.41C280.57 35.07 280.35 33.29 280.13 32.07C280.91 31.84 281.69 31.73 282.47 31.73C285.7 31.73 288.59 33.73 290.37 36.63C292.6 39.97 292.82 44.53 292.82 49.21V53.55C293.82 50.21 295.05 47.1 296.16 44.98C296.05 44.2 295.94 43.31 295.94 42.53C295.94 41.42 296.05 39.97 296.38 38.52C297.16 35.29 298.38 32.85 300.06 31.51C300.73 30.95 301.51 30.73 302.4 30.73C305.96 30.73 310.75 34.51 310.75 38.97C310.75 41.98 306.19 47.21 306.19 47.21C306.19 47.21 308.19 53 313.54 54.11C313.88 54.22 314.32 54.22 314.65 54.22C318.21 54.22 321.55 51.1 322.45 47.54C324.34 47.76 325.57 49.43 325.57 52.1C325.57 57.78 320.34 61.23 313.99 61.23C307.76 61.23 302.3 58.23 299.3 53.66C297.85 56 296.4 59.11 295.18 62.34C293.62 66.35 292.51 70.69 292.51 73.58C292.49 78.15 292.6 82.04 292.93 86.39Z" fill="currentColor"/>
<path d="M364.08 80.38C368.09 80.38 372.65 72.48 373.65 68.69C374.88 69.02 376.43 70.47 376.43 73.36C376.43 74.14 376.32 74.92 376.1 75.81C374.21 81.38 368.64 87.39 361.74 87.39C359.07 87.39 355.29 85.94 352.95 84.16C351.17 82.82 349.72 81.04 349.27 79.15C348.27 74.69 347.93 71.91 347.93 69.13C347.93 67.68 348.04 66.23 348.16 64.45C348.16 64.01 348.27 63.56 348.27 63.12C346.71 68.46 341.37 84.16 334.36 86.61C333.36 86.95 332.36 87.06 331.46 87.06C327.68 87.06 324 84.5 321.33 80.27C318.33 75.6 316.32 68.8 316.1 61.68V60.46C316.1 49.11 320.66 35.41 329.9 31.74C331.79 30.96 333.8 30.63 335.8 30.63C341.26 30.63 346.6 33.3 349.94 38.09C350.16 36.87 350.27 35.75 350.38 34.08C350.49 32.97 351.27 32.41 352.5 32.41C355.95 32.41 362.18 36.42 362.29 41.32C362.29 42.43 362.07 45.22 361.73 48.56C361.06 54.91 360.28 63.48 360.28 69.93C360.28 75.16 360.84 79.17 362.51 79.95C363.08 80.15 363.53 80.38 364.08 80.38ZM339.26 71.58C342.82 65.46 346.38 55.22 348.39 46.2C348.05 42.64 345.16 37.63 341.49 37.63C340.27 37.63 338.93 38.19 337.59 39.52C333.03 44.31 330.36 57.11 330.36 66.24C330.36 71.92 331.92 77.26 333.59 77.26C335.26 77.26 337.25 75.03 339.26 71.58Z" fill="currentColor"/>
<path d="M442.93 87.72C437.59 87.72 431.69 83.38 430.02 77.03C429.13 73.58 428.8 70.13 428.8 66.45C428.8 61 429.47 55.54 429.47 49.53C429.47 48.64 429.47 46.19 428.91 44.07C428.47 42.4 427.8 41.07 426.57 41.07C425.79 41.07 424.68 42.18 423.57 44.19C421.45 47.87 419.01 54.1 416.89 60.78C413.78 70.47 411.22 80.82 411.22 84.72V85.39C410.11 85.73 408.88 85.95 407.54 85.95C403.98 85.95 400.19 84.39 399.19 80.61C398.97 79.61 398.85 78.49 398.85 77.16C398.85 73.27 399.63 67.92 399.85 61.46C399.96 59.01 399.96 56.34 399.96 53.89C399.96 47.1 399.52 41.31 397.18 41.31C394.84 41.31 390.94 51 387.72 61.57C384.82 71.14 382.49 81.39 382.49 85.84C381.93 86.06 381.38 86.18 380.6 86.18C376.7 86.18 370.47 83.06 370.13 78.83C370.02 77.27 369.91 75.05 369.91 72.48C369.91 67.47 370.13 61.24 370.47 56.45C370.81 50.33 371.36 45.76 371.36 41.09C371.36 38.75 371.25 36.42 370.81 33.86C371.48 33.64 372.26 33.52 373.04 33.52C376.27 33.52 380.16 35.19 381.72 38.53C382.39 39.98 382.94 43.09 382.94 47.33C382.94 48.33 382.94 49.44 382.16 62.36C382.5 60.8 384.83 51.22 387.84 43.55C389.73 38.65 391.96 32.53 398.53 32.53C403.42 32.53 408.22 36.2 410 40.54C411.55 44.33 411.89 48.56 411.89 52.68C411.89 55.13 411.78 57.47 411.67 60.81C413.56 53.24 415.9 47.9 418.02 42.33C419.91 37.21 423.36 32.42 428.37 32.42C433.05 32.42 439.17 34.98 441.4 42.33C441.96 44.45 442.18 46.67 442.18 49.12C442.18 52.46 441.84 56.02 441.62 59.69C441.51 61.92 441.07 66.71 441.07 71.04C441.07 75.16 441.4 78.94 442.96 79.95C443.52 80.39 444.07 80.5 444.74 80.5C446.41 80.5 448.08 79.17 449.64 77.27C451.98 74.37 453.98 70.37 454.54 68.36C455.76 68.58 457.32 70.14 457.32 72.92C457.32 73.7 457.21 74.48 456.98 75.37C455.42 80.83 449.63 86.17 445.4 87.39C444.61 87.61 443.83 87.72 442.93 87.72Z" fill="currentColor"/>
</g>
<defs>
<clipPath id="clip0">
<rect width="457.3" height="110.21" fill="white"/>
</clipPath>
</defs>
</svg>
